<mxfile host="app.diagrams.net" agent="Mozilla/5.0 (Macintosh; Intel Mac OS X 10_15_7) AppleWebKit/537.36 (KHTML, like Gecko) Chrome/126.0.0.0 Safari/537.36" version="24.7.7">
  <diagram name="Page-1" id="SHX6oytUQxFrerYBpx-V">
    <mxGraphModel dx="1061" dy="1813" grid="1" gridSize="10" guides="1" tooltips="1" connect="1" arrows="1" fold="1" page="1" pageScale="1" pageWidth="850" pageHeight="1100" math="0" shadow="0">
      <root>
        <mxCell id="0" />
        <mxCell id="1" parent="0" />
        <mxCell id="z_TlRWwoF-MZvYyIJT39-3" value="" style="whiteSpace=wrap;html=1;aspect=fixed;" vertex="1" parent="1">
          <mxGeometry x="360" y="-40" width="540" height="540" as="geometry" />
        </mxCell>
        <mxCell id="z_TlRWwoF-MZvYyIJT39-6" value="" style="edgeStyle=orthogonalEdgeStyle;rounded=0;orthogonalLoop=1;jettySize=auto;html=1;" edge="1" parent="1" source="z_TlRWwoF-MZvYyIJT39-4">
          <mxGeometry relative="1" as="geometry">
            <mxPoint x="970" y="460" as="targetPoint" />
          </mxGeometry>
        </mxCell>
        <mxCell id="z_TlRWwoF-MZvYyIJT39-4" value="&lt;font style=&quot;font-size: 24px;&quot;&gt;Node、npm、yarn&lt;/font&gt;" style="rounded=0;whiteSpace=wrap;html=1;fillColor=#d5e8d4;strokeColor=#82b366;" vertex="1" parent="1">
          <mxGeometry x="370" y="430" width="520" height="60" as="geometry" />
        </mxCell>
        <mxCell id="z_TlRWwoF-MZvYyIJT39-7" value="&lt;h1 style=&quot;margin-top: 0px;&quot;&gt;基础层&lt;br&gt;&lt;/h1&gt;&lt;p&gt;支撑着整个前端工程化流程&lt;br&gt;&lt;/p&gt;" style="text;html=1;whiteSpace=wrap;overflow=hidden;rounded=0;" vertex="1" parent="1">
          <mxGeometry x="970" y="430" width="160" height="65" as="geometry" />
        </mxCell>
        <mxCell id="z_TlRWwoF-MZvYyIJT39-11" style="edgeStyle=orthogonalEdgeStyle;rounded=0;orthogonalLoop=1;jettySize=auto;html=1;exitX=1;exitY=0.5;exitDx=0;exitDy=0;entryX=0;entryY=0.5;entryDx=0;entryDy=0;" edge="1" parent="1" source="z_TlRWwoF-MZvYyIJT39-8" target="z_TlRWwoF-MZvYyIJT39-9">
          <mxGeometry relative="1" as="geometry" />
        </mxCell>
        <mxCell id="z_TlRWwoF-MZvYyIJT39-8" value="&lt;font style=&quot;font-size: 24px;&quot;&gt;Vue/React&lt;/font&gt;" style="rounded=0;whiteSpace=wrap;html=1;fillColor=#f8cecc;strokeColor=#b85450;" vertex="1" parent="1">
          <mxGeometry x="370" y="360" width="250" height="60" as="geometry" />
        </mxCell>
        <mxCell id="z_TlRWwoF-MZvYyIJT39-13" style="edgeStyle=orthogonalEdgeStyle;rounded=0;orthogonalLoop=1;jettySize=auto;html=1;exitX=1;exitY=0.5;exitDx=0;exitDy=0;entryX=0;entryY=0.5;entryDx=0;entryDy=0;" edge="1" parent="1" source="z_TlRWwoF-MZvYyIJT39-9" target="z_TlRWwoF-MZvYyIJT39-12">
          <mxGeometry relative="1" as="geometry" />
        </mxCell>
        <mxCell id="z_TlRWwoF-MZvYyIJT39-9" value="&lt;font style=&quot;font-size: 24px;&quot;&gt;Vite/Webpack&lt;/font&gt;" style="rounded=0;whiteSpace=wrap;html=1;fillColor=#f8cecc;strokeColor=#b85450;" vertex="1" parent="1">
          <mxGeometry x="650" y="360" width="240" height="60" as="geometry" />
        </mxCell>
        <mxCell id="z_TlRWwoF-MZvYyIJT39-12" value="&lt;h1 style=&quot;margin-top: 0px;&quot;&gt;开发与构建&lt;/h1&gt;&lt;p&gt;紧密相连，负责代码的开发和构建&lt;br&gt;&lt;/p&gt;" style="text;html=1;whiteSpace=wrap;overflow=hidden;rounded=0;" vertex="1" parent="1">
          <mxGeometry x="960" y="352.5" width="200" height="75" as="geometry" />
        </mxCell>
        <mxCell id="z_TlRWwoF-MZvYyIJT39-17" style="edgeStyle=orthogonalEdgeStyle;rounded=0;orthogonalLoop=1;jettySize=auto;html=1;entryX=0;entryY=0.5;entryDx=0;entryDy=0;" edge="1" parent="1" source="z_TlRWwoF-MZvYyIJT39-14" target="z_TlRWwoF-MZvYyIJT39-16">
          <mxGeometry relative="1" as="geometry">
            <mxPoint x="940" y="310" as="targetPoint" />
          </mxGeometry>
        </mxCell>
        <mxCell id="z_TlRWwoF-MZvYyIJT39-19" style="edgeStyle=orthogonalEdgeStyle;rounded=0;orthogonalLoop=1;jettySize=auto;html=1;exitX=1;exitY=0.75;exitDx=0;exitDy=0;entryX=1;entryY=0.25;entryDx=0;entryDy=0;" edge="1" parent="1" source="z_TlRWwoF-MZvYyIJT39-14" target="z_TlRWwoF-MZvYyIJT39-9">
          <mxGeometry relative="1" as="geometry" />
        </mxCell>
        <mxCell id="z_TlRWwoF-MZvYyIJT39-14" value="&lt;font style=&quot;font-size: 24px;&quot;&gt;&lt;strong&gt;ESLint&lt;/strong&gt; 和 &lt;strong&gt;Prettier&lt;/strong&gt;&lt;/font&gt;" style="rounded=0;whiteSpace=wrap;html=1;fillColor=#fff2cc;strokeColor=#d6b656;" vertex="1" parent="1">
          <mxGeometry x="370" y="280" width="520" height="60" as="geometry" />
        </mxCell>
        <mxCell id="z_TlRWwoF-MZvYyIJT39-16" value="&lt;h1 style=&quot;margin-top: 0px;&quot;&gt;质量保障&lt;/h1&gt;&lt;p&gt;提供代码质量保障，与 &lt;strong&gt;Vite/Webpack&lt;/strong&gt; 配合使用&lt;br&gt;&lt;/p&gt;" style="text;html=1;whiteSpace=wrap;overflow=hidden;rounded=0;" vertex="1" parent="1">
          <mxGeometry x="960" y="265" width="160" height="90" as="geometry" />
        </mxCell>
        <mxCell id="z_TlRWwoF-MZvYyIJT39-20" value="&lt;span style=&quot;font-size: 24px;&quot;&gt;&lt;b&gt;GIT&lt;/b&gt;&lt;/span&gt;" style="rounded=0;whiteSpace=wrap;html=1;fillColor=#60a917;strokeColor=#2D7600;fontColor=#ffffff;" vertex="1" parent="1">
          <mxGeometry x="370" y="200" width="520" height="60" as="geometry" />
        </mxCell>
        <mxCell id="z_TlRWwoF-MZvYyIJT39-21" value="&lt;h1 style=&quot;margin-top: 0px;&quot;&gt;代码安全&lt;/h1&gt;&lt;p&gt;版本控制工具，管理代码变更，支持团队协作开发&lt;br&gt;&lt;/p&gt;" style="text;html=1;whiteSpace=wrap;overflow=hidden;rounded=0;" vertex="1" parent="1">
          <mxGeometry x="960" y="180" width="160" height="80" as="geometry" />
        </mxCell>
        <mxCell id="z_TlRWwoF-MZvYyIJT39-22" style="edgeStyle=orthogonalEdgeStyle;rounded=0;orthogonalLoop=1;jettySize=auto;html=1;entryX=-0.003;entryY=0.619;entryDx=0;entryDy=0;entryPerimeter=0;" edge="1" parent="1" source="z_TlRWwoF-MZvYyIJT39-20" target="z_TlRWwoF-MZvYyIJT39-21">
          <mxGeometry relative="1" as="geometry" />
        </mxCell>
        <mxCell id="z_TlRWwoF-MZvYyIJT39-26" style="edgeStyle=orthogonalEdgeStyle;rounded=0;orthogonalLoop=1;jettySize=auto;html=1;entryX=1;entryY=0.5;entryDx=0;entryDy=0;" edge="1" parent="1" source="z_TlRWwoF-MZvYyIJT39-23" target="z_TlRWwoF-MZvYyIJT39-25">
          <mxGeometry relative="1" as="geometry">
            <mxPoint x="320" y="150" as="targetPoint" />
          </mxGeometry>
        </mxCell>
        <mxCell id="z_TlRWwoF-MZvYyIJT39-23" value="&lt;font style=&quot;font-size: 24px;&quot;&gt;&lt;b style=&quot;&quot;&gt;CI（&lt;/b&gt;&lt;font style=&quot;&quot;&gt;持续集成&lt;/font&gt;&lt;/font&gt;&lt;b style=&quot;font-size: 24px;&quot;&gt;）&lt;/b&gt;" style="rounded=0;whiteSpace=wrap;html=1;fillColor=#60a917;strokeColor=#2D7600;fontColor=#ffffff;" vertex="1" parent="1">
          <mxGeometry x="370" y="130" width="250" height="60" as="geometry" />
        </mxCell>
        <mxCell id="z_TlRWwoF-MZvYyIJT39-27" style="edgeStyle=orthogonalEdgeStyle;rounded=0;orthogonalLoop=1;jettySize=auto;html=1;" edge="1" parent="1" source="z_TlRWwoF-MZvYyIJT39-24">
          <mxGeometry relative="1" as="geometry">
            <mxPoint x="960" y="150" as="targetPoint" />
          </mxGeometry>
        </mxCell>
        <mxCell id="z_TlRWwoF-MZvYyIJT39-24" value="&lt;span style=&quot;font-size: 24px;&quot;&gt;&lt;b&gt;CD（&lt;/b&gt;&lt;/span&gt;&lt;font style=&quot;font-size: 24px;&quot;&gt;持续部署&lt;/font&gt;&lt;span style=&quot;font-size: 24px;&quot;&gt;&lt;b&gt;）&lt;/b&gt;&lt;/span&gt;" style="rounded=0;whiteSpace=wrap;html=1;fillColor=#60a917;strokeColor=#2D7600;fontColor=#ffffff;" vertex="1" parent="1">
          <mxGeometry x="650" y="130" width="240" height="60" as="geometry" />
        </mxCell>
        <mxCell id="z_TlRWwoF-MZvYyIJT39-25" value="&lt;h1 style=&quot;margin-top: 0px;&quot;&gt;CI&lt;/h1&gt;&lt;p&gt;自动化集成测试，每次代码提交都会触发构建和测试流程，确保代码质量&lt;br&gt;&lt;/p&gt;" style="text;html=1;whiteSpace=wrap;overflow=hidden;rounded=0;" vertex="1" parent="1">
          <mxGeometry x="130" y="90" width="180" height="120" as="geometry" />
        </mxCell>
        <mxCell id="z_TlRWwoF-MZvYyIJT39-28" value="&lt;h1 style=&quot;margin-top: 0px;&quot;&gt;CD&lt;/h1&gt;&lt;p&gt;自动化部署，将通过测试的代码自动部署到生产环境&lt;br&gt;&lt;/p&gt;" style="text;html=1;whiteSpace=wrap;overflow=hidden;rounded=0;" vertex="1" parent="1">
          <mxGeometry x="960" y="100" width="160" height="80" as="geometry" />
        </mxCell>
        <mxCell id="z_TlRWwoF-MZvYyIJT39-32" style="edgeStyle=orthogonalEdgeStyle;rounded=0;orthogonalLoop=1;jettySize=auto;html=1;exitX=1;exitY=0.5;exitDx=0;exitDy=0;entryX=0;entryY=0.5;entryDx=0;entryDy=0;" edge="1" parent="1" source="z_TlRWwoF-MZvYyIJT39-29" target="z_TlRWwoF-MZvYyIJT39-31">
          <mxGeometry relative="1" as="geometry" />
        </mxCell>
        <mxCell id="z_TlRWwoF-MZvYyIJT39-29" value="&lt;span style=&quot;font-size: 24px;&quot;&gt;&lt;b&gt;JEST（单元测试）/ 集成测试&lt;/b&gt;&lt;/span&gt;" style="rounded=0;whiteSpace=wrap;html=1;fillColor=#60a917;strokeColor=#2D7600;fontColor=#ffffff;" vertex="1" parent="1">
          <mxGeometry x="370" y="55" width="520" height="60" as="geometry" />
        </mxCell>
        <mxCell id="z_TlRWwoF-MZvYyIJT39-35" style="edgeStyle=orthogonalEdgeStyle;rounded=0;orthogonalLoop=1;jettySize=auto;html=1;entryX=0;entryY=0.5;entryDx=0;entryDy=0;" edge="1" parent="1" source="z_TlRWwoF-MZvYyIJT39-30" target="z_TlRWwoF-MZvYyIJT39-33">
          <mxGeometry relative="1" as="geometry" />
        </mxCell>
        <mxCell id="z_TlRWwoF-MZvYyIJT39-30" value="&lt;font style=&quot;font-size: 24px;&quot;&gt;Sentry（错误监控）、&lt;/font&gt;&lt;div&gt;&lt;font style=&quot;font-size: 24px;&quot;&gt;Lighthouse、Google Analytics（性能监控）&amp;nbsp;&lt;/font&gt;&lt;/div&gt;" style="rounded=0;whiteSpace=wrap;html=1;fillColor=#60a917;strokeColor=#2D7600;fontColor=#ffffff;" vertex="1" parent="1">
          <mxGeometry x="370" y="-20" width="520" height="60" as="geometry" />
        </mxCell>
        <mxCell id="z_TlRWwoF-MZvYyIJT39-31" value="&lt;h1 style=&quot;margin-top: 0px;&quot;&gt;测试&lt;/h1&gt;" style="text;html=1;whiteSpace=wrap;overflow=hidden;rounded=0;" vertex="1" parent="1">
          <mxGeometry x="960" y="55" width="140" height="50" as="geometry" />
        </mxCell>
        <mxCell id="z_TlRWwoF-MZvYyIJT39-33" value="&lt;h1 style=&quot;margin-top: 0px;&quot;&gt;监控与反馈&lt;br&gt;&lt;/h1&gt;&lt;p&gt;&lt;br&gt;&lt;/p&gt;" style="text;html=1;whiteSpace=wrap;overflow=hidden;rounded=0;" vertex="1" parent="1">
          <mxGeometry x="960" y="-20" width="150" height="60" as="geometry" />
        </mxCell>
      </root>
    </mxGraphModel>
  </diagram>
</mxfile>
